<svg xmlns="http://www.w3.org/2000/svg" xmlns:xlink="http://www.w3.org/1999/xlink" width="388.94" height="390.87" data-semantic-id="11" data-semantic-structure="(11 (1 2 3) 0 (4 (5 6 7) (8 9 10)))" data-semantic-speech="a house with a grey front wall, a dark grey roof with a red chimney ad a blue door with a round door knob"><defs><linearGradient id="n"><stop offset="0" stop-color="#fff"/><stop offset="1" stop-color="#fff" stop-opacity="0"/></linearGradient><linearGradient id="m"><stop offset="0" stop-color="#ac4300"/><stop offset="1" stop-color="#ac4300"/></linearGradient><linearGradient id="l"><stop offset="0" stop-color="#fff" stop-opacity=".39"/><stop offset="1" stop-color="#fff" stop-opacity="0"/></linearGradient><linearGradient id="k"><stop offset="0" stop-color="#6a8fc6"/><stop offset="1" stop-color="#97b9ec"/></linearGradient><linearGradient id="i"><stop offset="0" stop-color="#c9c9c9"/><stop offset="1" stop-color="#002f52"/></linearGradient><linearGradient id="j"><stop offset="0" stop-color="#fff"/><stop offset="1" stop-color="#fff" stop-opacity="0"/></linearGradient><linearGradient id="g"><stop offset="0" stop-color="#fef9e5"/><stop offset=".18" stop-color="#fff"/><stop offset="1" stop-color="#fef9e5"/></linearGradient><linearGradient id="f"><stop offset="0" stop-color="#c9c9c9"/><stop offset="1" stop-color="#fff"/></linearGradient><linearGradient id="e"><stop offset="0" stop-color="#fff"/><stop offset="1" stop-color="#fff"/></linearGradient><linearGradient id="d"><stop offset="0" stop-color="#003fff"/><stop offset="1" stop-color="#fff"/></linearGradient><linearGradient id="c"><stop offset="0" stop-color="#ff9191"/><stop offset="1" stop-color="#b55858"/></linearGradient><linearGradient id="b"><stop offset="0" stop-color="#fff"/><stop offset="1" stop-color="#fff" stop-opacity="0"/></linearGradient><linearGradient id="a"><stop offset="0" stop-color="#fff"/><stop offset="1" stop-color="#c9c9c9"/></linearGradient><linearGradient id="h"><stop offset="0" stop-color="#ff9e00"/><stop offset="1" stop-color="#9c6000"/></linearGradient><linearGradient id="q" x1="368.21" x2="368.21" y1="476.65" y2="552.1" gradientTransform="translate(-39.83 -25.3) scale(1.102)" gradientUnits="userSpaceOnUse" xlink:href="#l"/><linearGradient id="p" x1="366.43" x2="366.43" y1="638.79" y2="465.47" gradientTransform="translate(-39.83 -25.3) scale(1.102)" gradientUnits="userSpaceOnUse" xlink:href="#k"/><linearGradient id="o" x1="366.69" x2="366.69" y1="640.22" y2="327.84" gradientTransform="translate(-39.83 -25.3) scale(1.102)" gradientUnits="userSpaceOnUse" xlink:href="#f"/></defs>
<g color="#000">
<path data-semantic-id="0" data-semantic-speech="grey front wall" fill="url(#o)" d="M520.46 487.66L368.91 336 217.37 487.66v179.82c0 1.75.36 3.4 1 4.92a12.61 12.61 0 0 0 2.69 4.02 12.61 12.61 0 0 0 4.02 2.68c1.51.64 3.17 1.01 4.92 1.01h277.83c1.75 0 3.4-.37 4.92-1a12.61 12.61 0 0 0 4.02-2.69 12.61 12.61 0 0 0 2.68-4.02c.64-1.51 1.01-3.17 1.01-4.92V487.66z" overflow="visible" style="marker:none" transform="translate(-174.44 -290.74)"/>
<g data-semantic-id="1" data-semantic-speech="a dark grey roof with a red chimney">
<path data-semantic-id="2" data-semantic-speech="a red chimney" fill="#a00" d="M55.54 25.25c-1.74 0-3.38.39-4.89 1.03-1.51.64-2.88 1.5-4.03 2.65a12.65 12.65 0 0 0-3.68 8.96v159.03l67.05-67.12V37.89a12.65 12.65 0 0 0-3.68-8.95 12.55 12.55 0 0 0-4.04-2.66 12.64 12.64 0 0 0-4.92-1.03h-41.8z" overflow="visible" style="marker:none"/>
<path data-semantic-id="3" data-semantic-speech="a dark grey, mono-pitched roof" fill="#4c4c4c" d="M194.25 0a18.72 18.72 0 0 0-12.97 5.48L5.48 181.38a18.73 18.73 0 1 0 26.5 26.5l162.5-162.61 162.49 162.6a18.73 18.73 0 1 0 26.49-26.48L207.77 5.48A18.72 18.72 0 0 0 194.25 0z" overflow="visible" style="marker:none"/>
</g>
<g data-semantic-id="4" data-semantic-speech="a blue door with a doorknob">
<g data-semantic-id="5" data-semantic-speech="a blue door with a shimmer">
<path data-semantic-id="6" data-semantic-speech="the blue door frame" fill="url(#p)" d="M441.78 680.11H296.05V500.29c0-1.75.36-3.4 1-4.92a12.61 12.61 0 0 1 2.68-4.02 12.61 12.61 0 0 1 4.03-2.68c1.51-.64 3.17-1.01 4.92-1.01h120.47c1.75 0 3.4.37 4.92 1 1.51.65 2.88 1.54 4.02 2.69a12.61 12.61 0 0 1 2.69 4.02c.64 1.51 1 3.17 1 4.92V680.1z" overflow="visible" style="marker:none" transform="translate(-174.44 -290.74)"/>
<path data-semantic-id="7" data-semantic-speech="a shimmer on the upper third"  fill="url(#q)" d="M319.7 498.68a12.65 12.65 0 0 0-8.95 3.68 12.55 12.55 0 0 0-2.66 4.03 12.64 12.64 0 0 0-1.03 4.92v69.64h.3c2.9 11 29.34-24.45 61.55-24.45 32.2 0 58.67 35.45 61.57 24.45h.28V511.3a12.65 12.65 0 0 0-3.68-8.95 12.65 12.65 0 0 0-8.96-3.68h-98.43z" overflow="visible" style="marker:none" transform="translate(-174.44 -290.74)"/>
</g>
<g data-semantic-id="8" data-semantic-speech="a dark gray doorknob with a shimmer">
<path data-semantic-id="9" data-semantic-speech="a dark gray, round doorknob" fill="#4c4c4c" d="M256.31 293.15a15.74 15.74 0 1 1-31.48 0 15.74 15.74 0 1 1 31.48 0z" overflow="visible" style="marker:none"/>
<path data-semantic-id="10" data-semantic-speech="a shimmer in the shape of a crescent moon" fill="#e6e6e6" d="M240.57 281.74c-6.3 0-11.43 5.1-11.43 11.4 0 4.28 2.5 7.9 6 9.85-.2-.36-.54-.63-.7-1a11.37 11.37 0 0 1 2.48-12.5 11.38 11.38 0 0 1 12.5-2.45c.38.16.65.46 1 .66a11.26 11.26 0 0 0-9.85-5.96z" opacity=".5" overflow="visible" style="marker:none"/>
</g>
</g>
</g>
</svg>
