<svg xmlns="http://www.w3.org/2000/svg" xmlns:xlink="http://www.w3.org/1999/xlink" width="388.94" height="390.87"
    tabindex="0" role="tree" aria-level="1" data-owns-id="wikihouse-11"
    aria-label="a house with a grey front wall, a dark grey roof with a red chimney and a blue door with a round door knob"
    data-owns="wikihouse-1 wikihouse-0 wikihouse-4" class="" data-treewalker="">
    <defs role="presentation">
        <linearGradient id="n" role="presentation">
            <stop offset="0" stop-color="#fff" role="presentation"></stop>
            <stop offset="1" stop-color="#fff" stop-opacity="0" role="presentation"></stop>
        </linearGradient>
        <linearGradient id="m" role="presentation">
            <stop offset="0" stop-color="#ac4300" role="presentation"></stop>
            <stop offset="1" stop-color="#ac4300" role="presentation"></stop>
        </linearGradient>
        <linearGradient id="l" role="presentation">
            <stop offset="0" stop-color="#fff" stop-opacity=".39" role="presentation"></stop>
            <stop offset="1" stop-color="#fff" stop-opacity="0" role="presentation"></stop>
        </linearGradient>
        <linearGradient id="k" role="presentation">
            <stop offset="0" stop-color="#6a8fc6" role="presentation"></stop>
            <stop offset="1" stop-color="#97b9ec" role="presentation"></stop>
        </linearGradient>
        <linearGradient id="i" role="presentation">
            <stop offset="0" stop-color="#c9c9c9" role="presentation"></stop>
            <stop offset="1" stop-color="#002f52" role="presentation"></stop>
        </linearGradient>
        <linearGradient id="j" role="presentation">
            <stop offset="0" stop-color="#fff" role="presentation"></stop>
            <stop offset="1" stop-color="#fff" stop-opacity="0" role="presentation"></stop>
        </linearGradient>
        <linearGradient id="g" role="presentation">
            <stop offset="0" stop-color="#fef9e5" role="presentation"></stop>
            <stop offset=".18" stop-color="#fff" role="presentation"></stop>
            <stop offset="1" stop-color="#fef9e5" role="presentation"></stop>
        </linearGradient>
        <linearGradient id="f" role="presentation">
            <stop offset="0" stop-color="#c9c9c9" role="presentation"></stop>
            <stop offset="1" stop-color="#fff" role="presentation"></stop>
        </linearGradient>
        <linearGradient id="e" role="presentation">
            <stop offset="0" stop-color="#fff" role="presentation"></stop>
            <stop offset="1" stop-color="#fff" role="presentation"></stop>
        </linearGradient>
        <linearGradient id="d" role="presentation">
            <stop offset="0" stop-color="#003fff" role="presentation"></stop>
            <stop offset="1" stop-color="#fff" role="presentation"></stop>
        </linearGradient>
        <linearGradient id="c" role="presentation">
            <stop offset="0" stop-color="#ff9191" role="presentation"></stop>
            <stop offset="1" stop-color="#b55858" role="presentation"></stop>
        </linearGradient>
        <linearGradient id="b" role="presentation">
            <stop offset="0" stop-color="#fff" role="presentation"></stop>
            <stop offset="1" stop-color="#fff" stop-opacity="0" role="presentation"></stop>
        </linearGradient>
        <linearGradient id="a" role="presentation">
            <stop offset="0" stop-color="#fff" role="presentation"></stop>
            <stop offset="1" stop-color="#c9c9c9" role="presentation"></stop>
        </linearGradient>
        <linearGradient id="h" role="presentation">
            <stop offset="0" stop-color="#ff9e00" role="presentation"></stop>
            <stop offset="1" stop-color="#9c6000" role="presentation"></stop>
        </linearGradient>
        <linearGradient id="q" x1="368.21" x2="368.21" y1="476.65" y2="552.1"
            gradientTransform="translate(-39.83 -25.3) scale(1.102)" gradientUnits="userSpaceOnUse" xlink:href="#l"
            role="presentation"></linearGradient>
        <linearGradient id="p" x1="366.43" x2="366.43" y1="638.79" y2="465.47"
            gradientTransform="translate(-39.83 -25.3) scale(1.102)" gradientUnits="userSpaceOnUse" xlink:href="#k"
            role="presentation"></linearGradient>
        <linearGradient id="o" x1="366.69" x2="366.69" y1="640.22" y2="327.84"
            gradientTransform="translate(-39.83 -25.3) scale(1.102)" gradientUnits="userSpaceOnUse" xlink:href="#f"
            role="presentation"></linearGradient>
    </defs>
    <g color="#000" role="presentation">
        <path fill="url(#o)"
            d="M520.46 487.66L368.91 336 217.37 487.66v179.82c0 1.75.36 3.4 1 4.92a12.61 12.61 0 0 0 2.69 4.02 12.61 12.61 0 0 0 4.02 2.68c1.51.64 3.17 1.01 4.92 1.01h277.83c1.75 0 3.4-.37 4.92-1a12.61 12.61 0 0 0 4.02-2.69 12.61 12.61 0 0 0 2.68-4.02c.64-1.51 1.01-3.17 1.01-4.92V487.66z"
            overflow="visible" style="marker:none" transform="translate(-174.44 -290.74)" data-owns-id="wikihouse-0"
            aria-label="grey front wall" role="treeitem" aria-level="1"></path>
        <g data-owns-id="wikihouse-1" aria-label="a dark grey roof with a red chimney" role="treeitem" aria-level="1"
            data-owns="wikihouse-2 wikihouse-3">
            <path fill="#a00"
                d="M55.54 25.25c-1.74 0-3.38.39-4.89 1.03-1.51.64-2.88 1.5-4.03 2.65a12.65 12.65 0 0 0-3.68 8.96v159.03l67.05-67.12V37.89a12.65 12.65 0 0 0-3.68-8.95 12.55 12.55 0 0 0-4.04-2.66 12.64 12.64 0 0 0-4.92-1.03h-41.8z"
                overflow="visible" style="marker:none" data-owns-id="wikihouse-2" aria-label="a red chimney"
                role="treeitem" aria-level="2"></path>
            <path fill="#4c4c4c"
                d="M194.25 0a18.72 18.72 0 0 0-12.97 5.48L5.48 181.38a18.73 18.73 0 1 0 26.5 26.5l162.5-162.61 162.49 162.6a18.73 18.73 0 1 0 26.49-26.48L207.77 5.48A18.72 18.72 0 0 0 194.25 0z"
                overflow="visible" style="marker:none" data-owns-id="wikihouse-3"
                aria-label="a dark grey, mono-pitched roof" role="treeitem" aria-level="2"></path>
        </g>
        <g data-owns-id="wikihouse-4" aria-label="a blue door with a doorknob" role="treeitem" aria-level="1"
            data-owns="wikihouse-5 wikihouse-8">
            <g data-owns-id="wikihouse-5" aria-label="a blue door with a shimmer" role="treeitem" aria-level="2"
                data-owns="wikihouse-6 wikihouse-7">
                <path fill="url(#p)"
                    d="M441.78 680.11H296.05V500.29c0-1.75.36-3.4 1-4.92a12.61 12.61 0 0 1 2.68-4.02 12.61 12.61 0 0 1 4.03-2.68c1.51-.64 3.17-1.01 4.92-1.01h120.47c1.75 0 3.4.37 4.92 1 1.51.65 2.88 1.54 4.02 2.69a12.61 12.61 0 0 1 2.69 4.02c.64 1.51 1 3.17 1 4.92V680.1z"
                    overflow="visible" style="marker:none" transform="translate(-174.44 -290.74)"
                    data-owns-id="wikihouse-6" aria-label="the blue door frame" role="treeitem" aria-level="3"></path>
                <path fill="url(#q)"
                    d="M319.7 498.68a12.65 12.65 0 0 0-8.95 3.68 12.55 12.55 0 0 0-2.66 4.03 12.64 12.64 0 0 0-1.03 4.92v69.64h.3c2.9 11 29.34-24.45 61.55-24.45 32.2 0 58.67 35.45 61.57 24.45h.28V511.3a12.65 12.65 0 0 0-3.68-8.95 12.65 12.65 0 0 0-8.96-3.68h-98.43z"
                    overflow="visible" style="marker:none" transform="translate(-174.44 -290.74)"
                    data-owns-id="wikihouse-7" aria-label="a shimmer on the upper third" role="treeitem" aria-level="3">
                </path>
            </g>
            <g data-owns-id="wikihouse-8" aria-label="a dark gray doorknob with a shimmer" role="treeitem"
                aria-level="2" data-owns="wikihouse-9 wikihouse-10">
                <path fill="#4c4c4c" d="M256.31 293.15a15.74 15.74 0 1 1-31.48 0 15.74 15.74 0 1 1 31.48 0z"
                    overflow="visible" style="marker:none" data-owns-id="wikihouse-9"
                    aria-label="a dark gray, round doorknob" role="treeitem" aria-level="3"></path>
                <path fill="#e6e6e6"
                    d="M240.57 281.74c-6.3 0-11.43 5.1-11.43 11.4 0 4.28 2.5 7.9 6 9.85-.2-.36-.54-.63-.7-1a11.37 11.37 0 0 1 2.48-12.5 11.38 11.38 0 0 1 12.5-2.45c.38.16.65.46 1 .66a11.26 11.26 0 0 0-9.85-5.96z"
                    opacity=".5" overflow="visible" style="marker:none" data-owns-id="wikihouse-10"
                    aria-label="a shimmer in the shape of a crescent moon" role="treeitem" aria-level="3"></path>
            </g>
        </g>
    </g>
</svg>
